<mxfile host="Electron" modified="2024-05-10T16:32:48.154Z" agent="Mozilla/5.0 (Windows NT 10.0; Win64; x64) AppleWebKit/537.36 (KHTML, like Gecko) draw.io/22.1.2 Chrome/114.0.5735.289 Electron/25.9.4 Safari/537.36" etag="EydHUziUUeFv47EdDRpB" version="22.1.2" type="device">
  <diagram name="Página-1" id="m76rx7GwBAXhFAhAQHyr">
    <mxGraphModel dx="1434" dy="836" grid="1" gridSize="10" guides="1" tooltips="1" connect="1" arrows="1" fold="1" page="1" pageScale="1" pageWidth="827" pageHeight="1169" math="0" shadow="0">
      <root>
        <mxCell id="0" />
        <mxCell id="1" parent="0" />
        <mxCell id="7F8-GlVt_6maJEEFXptU-3" style="edgeStyle=orthogonalEdgeStyle;rounded=0;orthogonalLoop=1;jettySize=auto;html=1;" edge="1" parent="1" source="7F8-GlVt_6maJEEFXptU-1" target="7F8-GlVt_6maJEEFXptU-2">
          <mxGeometry relative="1" as="geometry" />
        </mxCell>
        <mxCell id="7F8-GlVt_6maJEEFXptU-1" value="" style="ellipse;whiteSpace=wrap;html=1;aspect=fixed;fillColor=#000000;" vertex="1" parent="1">
          <mxGeometry x="190" y="50" width="50" height="50" as="geometry" />
        </mxCell>
        <mxCell id="7F8-GlVt_6maJEEFXptU-5" style="edgeStyle=orthogonalEdgeStyle;rounded=0;orthogonalLoop=1;jettySize=auto;html=1;" edge="1" parent="1" source="7F8-GlVt_6maJEEFXptU-2" target="7F8-GlVt_6maJEEFXptU-4">
          <mxGeometry relative="1" as="geometry" />
        </mxCell>
        <mxCell id="7F8-GlVt_6maJEEFXptU-2" value="Validar que la información requerida sea valida a nivel de tipo de dato, longitud, obligatoriedad, formato y rango." style="rounded=0;whiteSpace=wrap;html=1;" vertex="1" parent="1">
          <mxGeometry x="125" y="150" width="180" height="80" as="geometry" />
        </mxCell>
        <mxCell id="7F8-GlVt_6maJEEFXptU-7" style="edgeStyle=orthogonalEdgeStyle;rounded=0;orthogonalLoop=1;jettySize=auto;html=1;" edge="1" parent="1" source="7F8-GlVt_6maJEEFXptU-4" target="7F8-GlVt_6maJEEFXptU-6">
          <mxGeometry relative="1" as="geometry" />
        </mxCell>
        <mxCell id="7F8-GlVt_6maJEEFXptU-10" style="edgeStyle=orthogonalEdgeStyle;rounded=0;orthogonalLoop=1;jettySize=auto;html=1;" edge="1" parent="1" source="7F8-GlVt_6maJEEFXptU-4" target="7F8-GlVt_6maJEEFXptU-9">
          <mxGeometry relative="1" as="geometry" />
        </mxCell>
        <mxCell id="7F8-GlVt_6maJEEFXptU-4" value="" style="rhombus;whiteSpace=wrap;html=1;" vertex="1" parent="1">
          <mxGeometry x="175" y="310" width="80" height="80" as="geometry" />
        </mxCell>
        <mxCell id="7F8-GlVt_6maJEEFXptU-6" value="Mostrar un mensaje de error indicando que la información requerida no es valida" style="rounded=0;whiteSpace=wrap;html=1;" vertex="1" parent="1">
          <mxGeometry x="500" y="320" width="180" height="60" as="geometry" />
        </mxCell>
        <mxCell id="7F8-GlVt_6maJEEFXptU-8" value="[La información requerida no es valida]" style="text;html=1;strokeColor=none;fillColor=none;align=center;verticalAlign=middle;whiteSpace=wrap;rounded=0;" vertex="1" parent="1">
          <mxGeometry x="270" y="320" width="210" height="30" as="geometry" />
        </mxCell>
        <mxCell id="7F8-GlVt_6maJEEFXptU-14" style="edgeStyle=orthogonalEdgeStyle;rounded=0;orthogonalLoop=1;jettySize=auto;html=1;" edge="1" parent="1" source="7F8-GlVt_6maJEEFXptU-9" target="7F8-GlVt_6maJEEFXptU-13">
          <mxGeometry relative="1" as="geometry" />
        </mxCell>
        <mxCell id="7F8-GlVt_6maJEEFXptU-9" value="Validar que el servicio exista" style="rounded=0;whiteSpace=wrap;html=1;" vertex="1" parent="1">
          <mxGeometry x="125" y="480" width="180" height="70" as="geometry" />
        </mxCell>
        <mxCell id="7F8-GlVt_6maJEEFXptU-11" value="[La información requerida es valida]" style="text;html=1;strokeColor=none;fillColor=none;align=center;verticalAlign=middle;whiteSpace=wrap;rounded=0;" vertex="1" parent="1">
          <mxGeometry x="10" y="410" width="210" height="30" as="geometry" />
        </mxCell>
        <mxCell id="7F8-GlVt_6maJEEFXptU-16" style="edgeStyle=orthogonalEdgeStyle;rounded=0;orthogonalLoop=1;jettySize=auto;html=1;" edge="1" parent="1" source="7F8-GlVt_6maJEEFXptU-13" target="7F8-GlVt_6maJEEFXptU-15">
          <mxGeometry relative="1" as="geometry" />
        </mxCell>
        <mxCell id="7F8-GlVt_6maJEEFXptU-19" style="edgeStyle=orthogonalEdgeStyle;rounded=0;orthogonalLoop=1;jettySize=auto;html=1;" edge="1" parent="1" source="7F8-GlVt_6maJEEFXptU-13" target="7F8-GlVt_6maJEEFXptU-18">
          <mxGeometry relative="1" as="geometry" />
        </mxCell>
        <mxCell id="7F8-GlVt_6maJEEFXptU-13" value="" style="rhombus;whiteSpace=wrap;html=1;" vertex="1" parent="1">
          <mxGeometry x="175" y="630" width="80" height="80" as="geometry" />
        </mxCell>
        <mxCell id="7F8-GlVt_6maJEEFXptU-15" value="Mostrar un mensaje de error indicando que el servicio ya existe" style="rounded=0;whiteSpace=wrap;html=1;" vertex="1" parent="1">
          <mxGeometry x="510" y="640" width="170" height="60" as="geometry" />
        </mxCell>
        <mxCell id="7F8-GlVt_6maJEEFXptU-17" value="[Si el Servicio ya Existe]" style="text;html=1;strokeColor=none;fillColor=none;align=center;verticalAlign=middle;whiteSpace=wrap;rounded=0;" vertex="1" parent="1">
          <mxGeometry x="270" y="640" width="210" height="30" as="geometry" />
        </mxCell>
        <mxCell id="7F8-GlVt_6maJEEFXptU-18" value="" style="rounded=0;whiteSpace=wrap;html=1;" vertex="1" parent="1">
          <mxGeometry x="155" y="800" width="120" height="60" as="geometry" />
        </mxCell>
        <mxCell id="7F8-GlVt_6maJEEFXptU-20" value="[Si el Servicio no Existe]" style="text;html=1;strokeColor=none;fillColor=none;align=center;verticalAlign=middle;whiteSpace=wrap;rounded=0;" vertex="1" parent="1">
          <mxGeometry x="20" y="750" width="210" height="30" as="geometry" />
        </mxCell>
      </root>
    </mxGraphModel>
  </diagram>
</mxfile>
